<svg xmlns="http://www.w3.org/2000/svg" viewBox="0 0 117.2 36.7"><symbol viewBox="0 0 117.2 36.7" id="c68d411d-3298-44fb-bf9d-cf013047a228"><title>logo-Mtl</title>  <path d="M20.2,31.8l-4.9-5.3H15.2v10h1.9V32.8c0-.6-0.1-1.7-0.1-1.7s0.6,0.8,1,1.3l2,2.2h0.2l2-2.2A11.467,11.467,0,0,0,23.3,31s-0.1,1-.1,1.7v3.7h2V26.5H25Z"></path> <path d="M33.1,26.5A5.058,5.058,0,0,0,28,31.6a5.121,5.121,0,0,0,5.1,5.1,5.058,5.058,0,0,0,5.1-5.1A5,5,0,0,0,33.1,26.5Zm0,8.3a3,3,0,0,1-3-3.2,3.006,3.006,0,1,1,6,0A3,3,0,0,1,33.1,34.8Z"></path> <path d="M47.4,30.8c0,0.7.1,1.8,0.1,1.8a10.1,10.1,0,0,0-1.2-1.3l-5-4.7H41.1v9.9H43V32.4c0-.7-0.1-1.8-0.1-1.8s0.7,0.8,1.2,1.3l5,4.7h0.2V26.7H47.4v4.1Z"></path> <polygon points="52.7 28.4 55.5 28.4 55.5 36.5 57.5 36.5 57.5 28.4 60.3 28.4 60.3 26.6 52.7 26.6 52.7 28.4"></polygon> <path d="M71.1,29.8c0-2.3-1.7-3.2-3.7-3.2H63.8v9.8h2V33h1.3l2,3.4h2.3l-2.2-3.7A3,3,0,0,0,71.1,29.8Zm-3.9,1.6V31.3H65.6V28.4h1.6a1.4,1.4,0,0,1,1.6,1.5A1.357,1.357,0,0,1,67.2,31.4Z"></path> <polygon points="98.3 26.6 96.3 26.6 96.3 36.5 102.8 36.5 102.8 34.7 98.3 34.7 98.3 26.6"></polygon> <path d="M88.8,26.5l-4.3,9.9h2L87,35.1h3.8l0.6,1.3h2.1L89,26.5H88.8Zm-1.2,7,1.2-3.2c0,0.1,1.2,3.2,1.2,3.2H87.6Z"></path> <polygon points="77.1 25.6 78.8 25.6 80.3 24.2 78.5 23.4 77.1 25.6"></polygon> <polygon points="76.8 32.4 80.8 32.4 80.8 30.7 76.8 30.7 76.8 28.4 81.3 28.4 81.3 26.6 74.8 26.6 74.8 36.5 81.5 36.5 81.5 34.7 76.8 34.7 76.8 32.4"></polygon> <path d="M57.2,14c0.1-3-1.4-4.7-5-5.9l-2.6-.8a1.583,1.583,0,0,1-1.4-1.5c0-.9.8-1.4,2-1.4a4.675,4.675,0,0,1,3.4,1.3l2.8-2.9c-1-1.1-2.9-2.5-6.5-2.5-3.2,0-6.5,1.8-6.5,5.7,0,2.8,1.6,4.7,4.7,5.7l2.3,0.8c1.3,0.4,2,.8,2,1.8,0,1.1-.9,1.6-2.6,1.6a4.993,4.993,0,0,1-4.1-2.1l-3.6,2.7A9.576,9.576,0,0,0,50,20C54.7,20,57.2,17.9,57.2,14Z"></path> <path d="M18.4,15.4L14.6,13A4.865,4.865,0,0,1,10,15.6c-2.9,0-4.9-2.3-4.9-5.6C5.1,6.8,7,4.5,9.8,4.5a4.846,4.846,0,0,1,4.4,2.3l3.7-2.5c-1.8-2.7-4.6-4-8.2-4A9.668,9.668,0,0,0,0,10.1a9.8,9.8,0,0,0,10,9.8C13.9,19.9,16.5,18.5,18.4,15.4Z"></path> <rect x="62.8" y="0.5" width="5" height="19.1"></rect> <path d="M79.2,9.8L91.5,19.9l0.1,0.2V0.5H87v9.8L74.7,0.1A0.31,0.31,0,0,0,74.5,0V19.6h4.7V9.8Z"></path> <path d="M106.9,0.2c-5.8,0-10.3,4.3-10.3,9.8s4.5,9.8,10.3,9.8,10.3-4.3,10.3-9.8A10,10,0,0,0,106.9.2Zm0,15.4c-3.1,0-5.2-2.2-5.2-5.6,0-3.3,2.1-5.5,5.2-5.5s5.2,2.2,5.2,5.5C112.1,13.4,110,15.6,106.9,15.6Z"></path> <path d="M29.9,0.1L20.6,19.6h4.6l1-2.3h7.4l1,2.3h4.8L30,0.1C30,0,30,0,29.9.1ZM27.5,13.9l2.3-5.4,2.3,5.4H27.5Z"></path> </symbol><use href="#c68d411d-3298-44fb-bf9d-cf013047a228"></use></svg>