<svg xmlns="http://www.w3.org/2000/svg" xmlns:xlink="http://www.w3.org/1999/xlink" width="221px" height="60px" viewBox="0 0 221 60" version="1.1">
    <!-- Generator: Sketch 45.1 (43504) - http://www.bohemiancoding.com/sketch -->
    <title>Group 18</title>
    <desc>Created with Sketch.</desc>
    <defs>
        <polygon id="path-1" points="0 59.3196466 220.683055 59.3196466 220.683055 0.0418186071 0 0.0418186071"/>
    </defs>
    <g id="Page-1" stroke="none" stroke-width="1" fill="none" fill-rule="evenodd">
        <g id="Home" transform="translate(-265.000000, -6175.000000)">
            <g id="FOOTER" transform="translate(1.000000, 5993.000000)">
                <g id="Page-1" transform="translate(264.000000, 182.000000)">
                    <g id="Group-18" transform="translate(0.000000, 0.465458)">
                        <path d="M81.9661505,30.1653465 C81.9661505,23.9530799 87.0761877,18.8884946 93.3479825,18.8884946 C99.6180813,18.8884946 104.729815,23.9530799 104.729815,30.1653465 C104.729815,36.3776131 99.6180813,41.4421984 93.3479825,41.4421984 C87.0761877,41.4421984 81.9661505,36.3776131 81.9661505,30.1653465 Z M99.6808332,30.1653465 C99.6808332,26.6248418 96.9536709,23.6724609 93.3479825,23.6724609 C89.7422941,23.6724609 87.0151319,26.6248418 87.0151319,30.1653465 C87.0151319,33.7075315 89.7422941,36.6582322 93.3479825,36.6582322 C96.9536709,36.6582322 99.6808332,33.7075315 99.6808332,30.1653465 Z" id="Fill-2" fill="#FEFEFE"/>
                        <path d="M107.265329,30.1653465 C107.265329,23.9530799 112.375366,18.8884946 118.647161,18.8884946 C124.91726,18.8884946 130.027297,23.9530799 130.027297,30.1653465 C130.027297,36.3776131 124.91726,41.4421984 118.647161,41.4421984 C112.375366,41.4421984 107.265329,36.3776131 107.265329,30.1653465 M124.980012,30.1653465 C124.980012,26.6248418 122.25285,23.6724609 118.647161,23.6724609 C115.041473,23.6724609 112.312615,26.6248418 112.312615,30.1653465 C112.312615,33.7075315 115.041473,36.6582322 118.647161,36.6582322 C122.25285,36.6582322 124.980012,33.7075315 124.980012,30.1653465" id="Fill-4" fill="#FEFEFE"/>
                        <path d="M133.192196,19.1380271 L140.998868,19.1380271 C147.270663,19.1380271 152.317948,24.0765859 152.317948,30.1661867 C152.317948,36.2541072 147.270663,41.1943463 140.998868,41.1943463 L133.192196,41.1943463 L133.192196,19.1380271 Z M140.998868,36.6590723 C144.73006,36.6590723 147.270663,33.7083717 147.270663,30.1661867 C147.270663,26.625682 144.73006,23.673301 140.998868,23.673301 L138.208954,23.673301 L138.208954,36.6590723 L140.998868,36.6590723 Z" id="Fill-6" fill="#FEFEFE"/>
                        <path d="M155.481999,19.1380271 L163.853437,19.1380271 C167.489654,19.1380271 170.467823,22.0887278 170.467823,25.6930859 C170.467823,27.2457324 169.872529,28.5194403 168.900723,29.4822828 C170.783279,30.4770521 172.03662,32.278391 172.03662,34.6392875 C172.03662,38.273892 169.05845,41.1943463 165.295034,41.1943463 L155.481999,41.1943463 L155.481999,19.1380271 Z M163.28867,28.0539824 C164.636988,28.0539824 165.608793,27.0911399 165.608793,25.8796051 C165.608793,24.6680703 164.636988,23.673301 163.28867,23.673301 L160.498756,23.673301 L160.498756,28.0539824 L163.28867,28.0539824 Z M164.825243,36.6271456 C166.17356,36.6271456 167.145366,35.6643031 167.145366,34.4527683 C167.145366,33.2412335 166.17356,32.2464642 164.825243,32.2464642 L160.498756,32.2464642 L160.498756,36.6271456 L164.825243,36.6271456 Z" id="Fill-8" fill="#FEFEFE"/>
                        <mask id="mask-2" fill="white">
                            <use xlink:href="#path-1"/>
                        </mask>
                        <g id="Clip-11"/>
                        <polygon id="Fill-10" fill="#FEFEFE" mask="url(#mask-2)" points="174.950511 41.1936741 179.967269 41.1936741 179.967269 19.137355 174.950511 19.137355"/>
                        <polygon id="Fill-12" fill="#FEFEFE" mask="url(#mask-2)" points="189.184161 29.6681299 189.184161 41.1936741 184.167404 41.1936741 184.167404 18.8886627 198.213646 30.6628992 198.213646 19.137355 203.230404 19.137355 203.230404 41.4423664"/>
                        <polygon id="Fill-13" fill="#FEFEFE" mask="url(#mask-2)" points="206.888668 19.1380271 220.683903 19.1380271 220.683903 24.0463395 211.905426 24.0463395 211.905426 27.7733634 218.803043 27.7733634 218.803043 32.5573296 211.905426 32.5573296 211.905426 36.2860339 220.683903 36.2860339 220.683903 41.1943463 206.888668 41.1943463"/>
                        <polygon id="Fill-14" fill="#E2231A" mask="url(#mask-2)" points="18.7149814 20.9274355 22.2663979 28.3058674 26.937172 15.3520228 23.8419786 15.3520228 21.752511 21.3609667 18.7149814 15.2075124 15.6757558 21.3609667 13.5879842 15.3520228 10.4927907 15.3520228 15.1635649 28.3058674"/>
                        <path d="M35.0579421,40.7782907 C35.0579421,49.7060085 27.7261496,56.9701764 18.7153206,56.9701764 C9.70279556,56.9701764 2.371003,49.7060085 2.371003,40.7782907 L2.371003,18.5825023 C2.371003,9.65478451 9.70279556,2.39061663 18.7153206,2.39061663 C27.7261496,2.39061663 35.0579421,9.65478451 35.0579421,18.5825023 L35.0579421,40.7782907 Z M18.7153206,0.0414825364 C8.39518231,0.0414825364 0,8.35923202 0,18.5825023 L0,40.7782907 C0,51.001561 8.39518231,59.3193105 18.7153206,59.3193105 C29.0337628,59.3193105 37.4289451,51.001561 37.4289451,40.7782907 L37.4289451,18.5825023 C37.4289451,8.35923202 29.0337628,0.0414825364 18.7153206,0.0414825364 L18.7153206,0.0414825364 Z" id="Fill-15" fill="#E2231A" mask="url(#mask-2)"/>
                        <path d="M30.3152577,40.7791309 C30.3152577,47.1157437 25.1119407,52.2727484 18.7146422,52.2727484 C12.3190396,52.2727484 7.11402661,47.1157437 7.11402661,40.7791309 L7.11402661,18.5833425 C7.11402661,12.2467297 12.3190396,7.089725 18.7146422,7.089725 C25.1119407,7.089725 30.3152577,12.2467297 30.3152577,18.5833425 L30.3152577,40.7791309 Z M18.7146422,4.7405909 C11.0114264,4.7405909 4.74302361,10.9511772 4.74302361,18.5833425 L4.74302361,40.7791309 C4.74302361,48.4112962 11.0114264,54.6218825 18.7146422,54.6218825 C26.4195539,54.6218825 32.6862607,48.4112962 32.6862607,40.7791309 L32.6862607,18.5833425 C32.6862607,10.9511772 26.4195539,4.7405909 18.7146422,4.7405909 L18.7146422,4.7405909 Z" id="Fill-16" fill="#E2231A" mask="url(#mask-2)"/>
                        <polygon id="Fill-17" fill="#E2231A" mask="url(#mask-2)" points="23.9279656 46.2402796 18.7127766 42.4880504 13.4958916 46.2402796 15.4920794 40.1691626 10.2785863 36.4135727 16.7199808 36.4135727 18.7127766 30.3390951 20.7055724 36.4135727 27.1503588 36.4135727 21.9385618 40.1691626"/>
                        <polygon id="Fill-1" fill="#FEFEFE" mask="url(#mask-2)" points="54.8790524 19.1380271 59.9890896 19.1380271 63.4387463 29.4822828 68.4555038 18.8893348 73.4722612 29.4822828 76.9202219 19.1380271 82.0302592 19.1380271 74.3185634 41.4430386 68.4555038 28.7378863 62.5907481 41.4430386"/>
                    </g>
                </g>
            </g>
        </g>
    </g>
</svg>